<?xml version="1.0" encoding="UTF-8"?>
<svg version="1.1" xmlns="http://www.w3.org/2000/svg" width="32" height="32">
<path d="M0 0 C4.8846525 2.26787438 7.73212562 5.1153475 10 10 C10.75381535 15.5997712 10.77303575 20.33499991 8.375 25.5 C3.80134327 30.3143755 0.6912538 32.25156236 -6 32.5 C-12.6912538 32.25156236 -15.80134327 30.3143755 -20.375 25.5 C-22.77303575 20.33499991 -22.75381535 15.5997712 -22 10 C-17.52212837 0.3553534 -9.85292056 -1.32635469 0 0 Z " fill="#15989A" transform="translate(22,0)"/>
<path d="M0 0 C4.8846525 2.26787438 7.73212562 5.1153475 10 10 C10.42249246 14.03480299 10.51856931 17.97204302 10 22 C9.34 22.66 8.68 23.32 8 24 C7.87882812 23.39671875 7.75765625 22.7934375 7.6328125 22.171875 C7.46523438 21.37265625 7.29765625 20.5734375 7.125 19.75 C6.88136719 18.56664062 6.88136719 18.56664062 6.6328125 17.359375 C6.00849925 15.03168856 5.15161458 13.10968048 4 11 C3.34 11 2.68 11 2 11 C2 11.99 2 12.98 2 14 C2.66 14.66 3.32 15.32 4 16 C3.34 17.32 2.68 18.64 2 20 C0.68 18.02 -0.64 16.04 -2 14 C-5.16115776 15.36983503 -5.9927092 15.9890638 -8 19 C-8.99 17.68 -9.98 16.36 -11 15 C-9.68 14.67 -8.36 14.34 -7 14 C-6.67 12.68 -6.34 11.36 -6 10 C-7.68973726 9.11443256 -7.68973726 9.11443256 -10 9 C-14.33741948 11.30148789 -16.97004766 13.51273693 -19 18 C-19.71401232 21.19395026 -19.71401232 21.19395026 -20 24 C-22.65499376 21.34500624 -22.32897553 19.95036703 -22.375 16.25 C-22.27436443 10.99179138 -21.7362681 7.93291379 -18 4 C-12.72867143 -1.00776214 -6.89190982 -0.92775709 0 0 Z " fill="#FA787D" transform="translate(22,0)"/>
<path d="M0 0 C3.5843878 1.19479593 4.46272219 2.68908835 6.19140625 5.96484375 C7.66592633 9.67607546 7.64348618 12.01038569 7 16 C4.80278421 18.71302559 2.12141242 20.43929379 -1 22 C-3.04055005 22.07065617 -5.08334257 22.08421976 -7.125 22.0625 C-8.22070312 22.05347656 -9.31640625 22.04445313 -10.4453125 22.03515625 C-11.70988281 22.01775391 -11.70988281 22.01775391 -13 22 C-13 21.67 -13 21.34 -13 21 C-9.37 21 -5.74 21 -2 21 C-1.67 20.01 -1.34 19.02 -1 18 C-0.34 18 0.32 18 1 18 C0.79375 16.948125 0.5875 15.89625 0.375 14.8125 C0.00036896 11.00375113 0.28369933 9.33164248 2 6 C1.34 5.34 0.68 4.68 0 4 C0 2.68 0 1.36 0 0 Z " fill="#307B87" transform="translate(23,10)"/>
<path d="M0 0 C3.16115776 1.36983503 3.9927092 1.9890638 6 5 C5.79296875 7.19140625 5.79296875 7.19140625 5.1875 9.5625 C4.89939453 10.74005859 4.89939453 10.74005859 4.60546875 11.94140625 C4 14 4 14 3 16 C2.01 15.67 1.02 15.34 0 15 C0 13.02 0 11.04 0 9 C-1.32 9 -2.64 9 -4 9 C-3.38461538 3.46153846 -3.38461538 3.46153846 -1.4375 1.125 C-0.963125 0.75375 -0.48875 0.3825 0 0 Z " fill="#1CB6AE" transform="translate(18,13)"/>
<path d="M0 0 C0.66 0 1.32 0 2 0 C1.125 3.875 1.125 3.875 0 5 C-0.2500773 7.45809998 -0.2500773 7.45809998 0 10 C0.66 10.66 1.32 11.32 2 12 C1.34 13.32 0.68 14.64 0 16 C-1.32 14.02 -2.64 12.04 -4 10 C-7.16115776 11.36983503 -7.9927092 11.9890638 -10 15 C-10.99 13.68 -11.98 12.36 -13 11 C-11.68 10.67 -10.36 10.34 -9 10 C-8.67 8.68 -8.34 7.36 -8 6 C-9.98 4.68 -11.96 3.36 -14 2 C-11 1 -11 1 -8.5625 2 C-5.74259118 3.10045222 -4.74958468 3.13775918 -2 2 C-1.34 1.34 -0.68 0.68 0 0 Z " fill="#EAEDEC" transform="translate(24,4)"/>
<path d="M0 0 C0.66 0.33 1.32 0.66 2 1 C2 2.32 2 3.64 2 5 C3.32 5 4.64 5 6 5 C6.12375 5.969375 6.2475 6.93875 6.375 7.9375 C6.58125 8.948125 6.7875 9.95875 7 11 C7.66 11.33 8.32 11.66 9 12 C9 12.66 9 13.32 9 14 C5.37 14 1.74 14 -2 14 C0 9 0 9 1 7 C0.01 6.67 -0.98 6.34 -2 6 C-1.34 4.02 -0.68 2.04 0 0 Z M10 7 C10.66 8.32 11.32 9.64 12 11 C11.01 11.33 10.02 11.66 9 12 C9.33 10.35 9.66 8.7 10 7 Z " fill="#147F8B" transform="translate(12,17)"/>
<path d="M0 0 C1.11375 0.556875 1.11375 0.556875 2.25 1.125 C1.9375 3 1.9375 3 1.25 5.125 C0.26 5.785 -0.73 6.445 -1.75 7.125 C-2.74 6.465 -3.73 5.805 -4.75 5.125 C-4.75 4.465 -4.75 3.805 -4.75 3.125 C-5.41 2.465 -6.07 1.805 -6.75 1.125 C-4.02098495 -0.69434337 -3.21400584 -1.02263822 0 0 Z " fill="#1C7E8A" transform="translate(14.75,8.875)"/>
<path d="M0 0 C1.65 0.99 3.3 1.98 5 3 C3.125 7.75 3.125 7.75 2 10 C1.34 10 0.68 10 0 10 C-0.38922918 8.71254964 -0.76098036 7.41980403 -1.125 6.125 C-1.43824219 5.04605469 -1.43824219 5.04605469 -1.7578125 3.9453125 C-1.83773438 3.30335937 -1.91765625 2.66140625 -2 2 C-1.34 1.34 -0.68 0.68 0 0 Z " fill="#21B9B0" transform="translate(8,21)"/>
<path d="M0 0 C3.48819868 1.16273289 4.3072108 1.78370053 6 5 C5.6875 8.75 5.6875 8.75 5 12 C3 11 3 11 1.9375 8.25 C1.14502508 5.5027536 0.49646926 2.81332583 0 0 Z " fill="#39B6A9" transform="translate(23,10)"/>
<path d="M0 0 C2.45103548 0.98041419 3.76758786 1.6513818 5.25 3.875 C6 6 6 6 6 10 C3.53199953 8.84826645 1.95216435 7.95216435 0 6 C-0.125 2.875 -0.125 2.875 0 0 Z " fill="#2E7985" transform="translate(2,20)"/>
</svg>
